<mxfile>
    <diagram id="VIW3LNgCnfH5hwZa5PW3" name="Page-1">
        <mxGraphModel dx="448" dy="327" grid="1" gridSize="10" guides="1" tooltips="1" connect="1" arrows="1" fold="1" page="1" pageScale="1" pageWidth="827" pageHeight="1169" math="0" shadow="0">
            <root>
                <mxCell id="0"/>
                <mxCell id="1" parent="0"/>
                <mxCell id="A9kIZFCnwzDyXK5sCehe-133" value="" style="shape=flexArrow;endArrow=none;startArrow=block;html=1;exitX=0.75;exitY=0;exitDx=0;exitDy=0;entryX=0.719;entryY=1;entryDx=0;entryDy=0;entryPerimeter=0;endWidth=17.931034482758623;endSize=2.613793103448276;startWidth=17.931034482758623;startSize=2.613793103448276;fillColor=#ffe6cc;strokeColor=#d79b00;endFill=0;startFill=0;" parent="1" edge="1">
                    <mxGeometry width="50" height="50" relative="1" as="geometry">
                        <mxPoint x="809.8800000000001" y="630" as="sourcePoint"/>
                        <mxPoint x="809.96" y="480" as="targetPoint"/>
                    </mxGeometry>
                </mxCell>
                <mxCell id="A9kIZFCnwzDyXK5sCehe-56" value="" style="endArrow=classic;html=1;exitX=0.857;exitY=0;exitDx=0;exitDy=0;entryX=0.162;entryY=1;entryDx=0;entryDy=0;fillColor=#f8cecc;strokeColor=#b85450;entryPerimeter=0;exitPerimeter=0;" parent="1" source="A9kIZFCnwzDyXK5sCehe-1" target="A9kIZFCnwzDyXK5sCehe-12" edge="1">
                    <mxGeometry width="50" height="50" relative="1" as="geometry">
                        <mxPoint x="259.8" y="180" as="sourcePoint"/>
                        <mxPoint x="259.92" y="120" as="targetPoint"/>
                    </mxGeometry>
                </mxCell>
                <mxCell id="A9kIZFCnwzDyXK5sCehe-11" value="Main Thread" style="shape=process;whiteSpace=wrap;html=1;backgroundOutline=1;size=0.0275;comic=0;rounded=0;glass=0;shadow=1;" parent="1" vertex="1">
                    <mxGeometry width="1640" height="40" as="geometry"/>
                </mxCell>
                <mxCell id="A9kIZFCnwzDyXK5sCehe-12" value="Server Thread" style="shape=process;whiteSpace=wrap;html=1;backgroundOutline=1;size=0.030555555555555555;comic=0;rounded=0;glass=0;shadow=1;" parent="1" vertex="1">
                    <mxGeometry x="20" y="60" width="1600" height="40" as="geometry"/>
                </mxCell>
                <mxCell id="A9kIZFCnwzDyXK5sCehe-16" value="" style="endArrow=classic;html=1;entryX=0.5;entryY=0;entryDx=0;entryDy=0;fillColor=#d5e8d4;strokeColor=#82b366;exitX=0.1;exitY=1;exitDx=0;exitDy=0;exitPerimeter=0;" parent="1" source="A9kIZFCnwzDyXK5sCehe-12" target="A9kIZFCnwzDyXK5sCehe-1" edge="1">
                    <mxGeometry width="50" height="50" relative="1" as="geometry">
                        <mxPoint x="180" y="170" as="sourcePoint"/>
                        <mxPoint x="160" y="170" as="targetPoint"/>
                    </mxGeometry>
                </mxCell>
                <mxCell id="A9kIZFCnwzDyXK5sCehe-19" value="New Connection" style="shape=hexagon;perimeter=hexagonPerimeter2;whiteSpace=wrap;html=1;fillColor=#d5e8d4;strokeColor=#82b366;" parent="1" vertex="1">
                    <mxGeometry x="120" y="105" width="120" height="40" as="geometry"/>
                </mxCell>
                <mxCell id="A9kIZFCnwzDyXK5sCehe-33" value="" style="shape=flexArrow;endArrow=classic;html=1;entryX=1;entryY=0.5;entryDx=0;entryDy=0;endWidth=12.5;endSize=2.5;fillColor=#ffe6cc;strokeColor=#d79b00;exitX=0;exitY=0;exitDx=60;exitDy=19;exitPerimeter=0;" parent="1" source="A9kIZFCnwzDyXK5sCehe-34" target="A9kIZFCnwzDyXK5sCehe-3" edge="1">
                    <mxGeometry width="50" height="50" relative="1" as="geometry">
                        <mxPoint x="340" y="150" as="sourcePoint"/>
                        <mxPoint x="260" y="130" as="targetPoint"/>
                        <Array as="points">
                            <mxPoint x="340" y="154"/>
                            <mxPoint x="340" y="350"/>
                        </Array>
                    </mxGeometry>
                </mxCell>
                <mxCell id="A9kIZFCnwzDyXK5sCehe-34" value="Handle" style="shape=cube;whiteSpace=wrap;html=1;boundedLbl=1;backgroundOutline=1;darkOpacity=0.05;darkOpacity2=0.1;size=7;fillColor=#f8cecc;strokeColor=#b85450;" parent="1" vertex="1">
                    <mxGeometry x="260" y="135" width="60" height="30" as="geometry"/>
                </mxCell>
                <mxCell id="A9kIZFCnwzDyXK5sCehe-48" value="" style="shape=flexArrow;endArrow=classic;html=1;endWidth=12.5;endSize=2.5;fillColor=#ffe6cc;strokeColor=#d79b00;entryX=0.929;entryY=0.002;entryDx=0;entryDy=0;entryPerimeter=0;exitX=0.667;exitY=1;exitDx=0;exitDy=0;exitPerimeter=0;" parent="1" source="A9kIZFCnwzDyXK5sCehe-34" target="A9kIZFCnwzDyXK5sCehe-1" edge="1">
                    <mxGeometry width="50" height="50" relative="1" as="geometry">
                        <mxPoint x="293" y="165" as="sourcePoint"/>
                        <mxPoint x="290" y="200" as="targetPoint"/>
                    </mxGeometry>
                </mxCell>
                <mxCell id="A9kIZFCnwzDyXK5sCehe-51" value="" style="endArrow=classic;html=1;fillColor=#d5e8d4;strokeColor=#82b366;exitX=0.5;exitY=1;exitDx=0;exitDy=0;entryX=0.5;entryY=0;entryDx=0;entryDy=0;" parent="1" source="A9kIZFCnwzDyXK5sCehe-11" target="A9kIZFCnwzDyXK5sCehe-12" edge="1">
                    <mxGeometry width="50" height="50" relative="1" as="geometry">
                        <mxPoint x="399.76" y="140" as="sourcePoint"/>
                        <mxPoint x="400" y="60" as="targetPoint"/>
                    </mxGeometry>
                </mxCell>
                <mxCell id="A9kIZFCnwzDyXK5sCehe-13" value="" style="endArrow=classic;html=1;entryX=0.25;entryY=0;entryDx=0;entryDy=0;fillColor=#d5e8d4;strokeColor=#82b366;" parent="1" target="A9kIZFCnwzDyXK5sCehe-2" edge="1">
                    <mxGeometry width="50" height="50" relative="1" as="geometry">
                        <mxPoint x="70" y="260" as="sourcePoint"/>
                        <mxPoint x="140" y="130" as="targetPoint"/>
                    </mxGeometry>
                </mxCell>
                <mxCell id="A9kIZFCnwzDyXK5sCehe-1" value="Client Connection Handler" style="shape=process;whiteSpace=wrap;html=1;backgroundOutline=1;size=0.08333333333333333;comic=0;rounded=0;glass=0;shadow=1;" parent="1" vertex="1">
                    <mxGeometry x="40" y="200" width="280" height="60" as="geometry"/>
                </mxCell>
                <mxCell id="A9kIZFCnwzDyXK5sCehe-2" value="Receiver Thread" style="shape=process;whiteSpace=wrap;html=1;backgroundOutline=1;comic=0;rounded=0;glass=0;shadow=1;" parent="1" vertex="1">
                    <mxGeometry x="40" y="320" width="120" height="60" as="geometry"/>
                </mxCell>
                <mxCell id="A9kIZFCnwzDyXK5sCehe-3" value="Sender Thread" style="shape=process;whiteSpace=wrap;html=1;backgroundOutline=1;comic=0;rounded=0;glass=0;shadow=1;" parent="1" vertex="1">
                    <mxGeometry x="200" y="320" width="120" height="60" as="geometry"/>
                </mxCell>
                <mxCell id="A9kIZFCnwzDyXK5sCehe-4" value="" style="shape=flexArrow;endArrow=classic;html=1;exitX=1;exitY=0.5;exitDx=0;exitDy=0;entryX=0;entryY=0.5;entryDx=0;entryDy=0;endWidth=12.5;endSize=2.5;fillColor=#ffe6cc;strokeColor=#d79b00;" parent="1" source="A9kIZFCnwzDyXK5sCehe-2" target="A9kIZFCnwzDyXK5sCehe-3" edge="1">
                    <mxGeometry width="50" height="50" relative="1" as="geometry">
                        <mxPoint x="180" y="340" as="sourcePoint"/>
                        <mxPoint x="230" y="290" as="targetPoint"/>
                    </mxGeometry>
                </mxCell>
                <mxCell id="A9kIZFCnwzDyXK5sCehe-5" value="" style="shape=flexArrow;endArrow=classic;html=1;entryX=0.5;entryY=0;entryDx=0;entryDy=0;endWidth=12.5;endSize=2.5;fillColor=#ffe6cc;strokeColor=#d79b00;" parent="1" target="A9kIZFCnwzDyXK5sCehe-3" edge="1">
                    <mxGeometry width="50" height="50" relative="1" as="geometry">
                        <mxPoint x="260" y="260" as="sourcePoint"/>
                        <mxPoint x="220" y="280" as="targetPoint"/>
                    </mxGeometry>
                </mxCell>
                <mxCell id="A9kIZFCnwzDyXK5sCehe-6" value="" style="shape=flexArrow;endArrow=classic;html=1;entryX=0.5;entryY=0;entryDx=0;entryDy=0;endWidth=12.5;endSize=2.5;fillColor=#ffe6cc;strokeColor=#d79b00;" parent="1" target="A9kIZFCnwzDyXK5sCehe-2" edge="1">
                    <mxGeometry width="50" height="50" relative="1" as="geometry">
                        <mxPoint x="100" y="260" as="sourcePoint"/>
                        <mxPoint x="99.83000000000001" y="290" as="targetPoint"/>
                    </mxGeometry>
                </mxCell>
                <mxCell id="A9kIZFCnwzDyXK5sCehe-7" value="" style="endArrow=classic;html=1;exitX=0.75;exitY=0;exitDx=0;exitDy=0;entryX=0.321;entryY=1;entryDx=0;entryDy=0;fillColor=#e1d5e7;strokeColor=#9673a6;entryPerimeter=0;" parent="1" edge="1">
                    <mxGeometry width="50" height="50" relative="1" as="geometry">
                        <mxPoint x="150" y="319.99999999999994" as="sourcePoint"/>
                        <mxPoint x="149.88" y="260" as="targetPoint"/>
                    </mxGeometry>
                </mxCell>
                <mxCell id="A9kIZFCnwzDyXK5sCehe-9" value="" style="endArrow=classic;html=1;exitX=0.25;exitY=0;exitDx=0;exitDy=0;entryX=0.679;entryY=1;entryDx=0;entryDy=0;fillColor=#e1d5e7;strokeColor=#9673a6;entryPerimeter=0;" parent="1" edge="1">
                    <mxGeometry width="50" height="50" relative="1" as="geometry">
                        <mxPoint x="220" y="319.99999999999994" as="sourcePoint"/>
                        <mxPoint x="220.12000000000006" y="260" as="targetPoint"/>
                    </mxGeometry>
                </mxCell>
                <mxCell id="A9kIZFCnwzDyXK5sCehe-14" value="" style="endArrow=classic;html=1;fillColor=#d5e8d4;strokeColor=#82b366;entryX=0.75;entryY=0;entryDx=0;entryDy=0;" parent="1" target="A9kIZFCnwzDyXK5sCehe-3" edge="1">
                    <mxGeometry width="50" height="50" relative="1" as="geometry">
                        <mxPoint x="290" y="260" as="sourcePoint"/>
                        <mxPoint x="290" y="290" as="targetPoint"/>
                    </mxGeometry>
                </mxCell>
                <mxCell id="A9kIZFCnwzDyXK5sCehe-52" value="&lt;font style=&quot;font-size: 9px&quot;&gt;ReadHalf&lt;/font&gt;" style="shape=cube;whiteSpace=wrap;html=1;boundedLbl=1;backgroundOutline=1;darkOpacity=0.05;darkOpacity2=0.1;size=4;fillColor=#e1d5e7;strokeColor=#9673a6;" parent="1" vertex="1">
                    <mxGeometry x="130" y="271" width="50" height="20" as="geometry"/>
                </mxCell>
                <mxCell id="A9kIZFCnwzDyXK5sCehe-53" value="&lt;font style=&quot;font-size: 9px&quot;&gt;Write&lt;font style=&quot;font-size: 9px&quot;&gt;Half&lt;/font&gt;&lt;/font&gt;" style="shape=cube;whiteSpace=wrap;html=1;boundedLbl=1;backgroundOutline=1;darkOpacity=0.05;darkOpacity2=0.1;size=4;fillColor=#e1d5e7;strokeColor=#9673a6;" parent="1" vertex="1">
                    <mxGeometry x="180" y="293" width="50" height="20" as="geometry"/>
                </mxCell>
                <mxCell id="A9kIZFCnwzDyXK5sCehe-54" value="&lt;font style=&quot;font-size: 9px&quot;&gt;ReadHalf&lt;/font&gt;" style="shape=cube;whiteSpace=wrap;html=1;boundedLbl=1;backgroundOutline=1;darkOpacity=0.05;darkOpacity2=0.1;size=4;fillColor=#d5e8d4;strokeColor=#82b366;" parent="1" vertex="1">
                    <mxGeometry x="30" y="286" width="50" height="20" as="geometry"/>
                </mxCell>
                <mxCell id="A9kIZFCnwzDyXK5sCehe-55" value="&lt;font style=&quot;font-size: 9px&quot;&gt;Write&lt;font style=&quot;font-size: 9px&quot;&gt;Half&lt;/font&gt;&lt;/font&gt;" style="shape=cube;whiteSpace=wrap;html=1;boundedLbl=1;backgroundOutline=1;darkOpacity=0.05;darkOpacity2=0.1;size=4;fillColor=#d5e8d4;strokeColor=#82b366;" parent="1" vertex="1">
                    <mxGeometry x="280" y="280" width="50" height="20" as="geometry"/>
                </mxCell>
                <mxCell id="A9kIZFCnwzDyXK5sCehe-57" value="Connection" style="shape=cube;whiteSpace=wrap;html=1;boundedLbl=1;backgroundOutline=1;darkOpacity=0.05;darkOpacity2=0.1;size=4;fillColor=#d5e8d4;strokeColor=#82b366;" parent="1" vertex="1">
                    <mxGeometry x="142.5" y="170" width="75" height="20" as="geometry"/>
                </mxCell>
                <mxCell id="A9kIZFCnwzDyXK5sCehe-79" value="Universe Thread" style="shape=process;whiteSpace=wrap;html=1;backgroundOutline=1;size=0.046875;comic=0;rounded=0;glass=0;shadow=1;" parent="1" vertex="1">
                    <mxGeometry x="510" y="240" width="360" height="60" as="geometry"/>
                </mxCell>
                <mxCell id="A9kIZFCnwzDyXK5sCehe-80" value="World Thread" style="shape=process;whiteSpace=wrap;html=1;backgroundOutline=1;size=0.046875;comic=0;rounded=0;glass=0;shadow=1;" parent="1" vertex="1">
                    <mxGeometry x="530" y="420" width="320" height="60" as="geometry"/>
                </mxCell>
                <mxCell id="A9kIZFCnwzDyXK5sCehe-81" value="Region Thread" style="shape=process;whiteSpace=wrap;html=1;backgroundOutline=1;size=0.046875;comic=0;rounded=0;glass=0;shadow=1;" parent="1" vertex="1">
                    <mxGeometry x="550" y="630" width="280" height="60" as="geometry"/>
                </mxCell>
                <mxCell id="A9kIZFCnwzDyXK5sCehe-83" value="" style="endArrow=classic;html=1;entryX=0.5;entryY=0;entryDx=0;entryDy=0;fillColor=#d5e8d4;strokeColor=#82b366;exitX=0.5;exitY=1;exitDx=0;exitDy=0;" parent="1" edge="1">
                    <mxGeometry width="50" height="50" relative="1" as="geometry">
                        <mxPoint x="714" y="300" as="sourcePoint"/>
                        <mxPoint x="714" y="420" as="targetPoint"/>
                    </mxGeometry>
                </mxCell>
                <mxCell id="A9kIZFCnwzDyXK5sCehe-84" value="" style="endArrow=classic;html=1;exitX=0.5;exitY=1;exitDx=0;exitDy=0;entryX=0.5;entryY=0;entryDx=0;entryDy=0;fillColor=#d5e8d4;strokeColor=#82b366;" parent="1" edge="1">
                    <mxGeometry width="50" height="50" relative="1" as="geometry">
                        <mxPoint x="702" y="480" as="sourcePoint"/>
                        <mxPoint x="702" y="630" as="targetPoint"/>
                    </mxGeometry>
                </mxCell>
                <mxCell id="A9kIZFCnwzDyXK5sCehe-86" value="" style="shape=link;html=1;exitX=1;exitY=0.5;exitDx=0;exitDy=0;entryX=0;entryY=0;entryDx=0;entryDy=26.5;entryPerimeter=0;" parent="1" source="A9kIZFCnwzDyXK5sCehe-79" target="A9kIZFCnwzDyXK5sCehe-59" edge="1">
                    <mxGeometry width="50" height="50" relative="1" as="geometry">
                        <mxPoint x="880" y="410" as="sourcePoint"/>
                        <mxPoint x="930" y="360" as="targetPoint"/>
                    </mxGeometry>
                </mxCell>
                <mxCell id="A9kIZFCnwzDyXK5sCehe-87" value="" style="shape=link;html=1;exitX=1;exitY=0.5;exitDx=0;exitDy=0;entryX=0;entryY=0;entryDx=0;entryDy=26.5;entryPerimeter=0;" parent="1" source="A9kIZFCnwzDyXK5sCehe-80" target="A9kIZFCnwzDyXK5sCehe-60" edge="1">
                    <mxGeometry width="50" height="50" relative="1" as="geometry">
                        <mxPoint x="857" y="463.5" as="sourcePoint"/>
                        <mxPoint x="1057" y="460" as="targetPoint"/>
                    </mxGeometry>
                </mxCell>
                <mxCell id="A9kIZFCnwzDyXK5sCehe-88" value="" style="shape=link;html=1;exitX=1;exitY=0.5;exitDx=0;exitDy=0;entryX=0;entryY=0;entryDx=0;entryDy=26.5;entryPerimeter=0;" parent="1" source="A9kIZFCnwzDyXK5sCehe-81" target="A9kIZFCnwzDyXK5sCehe-69" edge="1">
                    <mxGeometry width="50" height="50" relative="1" as="geometry">
                        <mxPoint x="840" y="633.5" as="sourcePoint"/>
                        <mxPoint x="980" y="630" as="targetPoint"/>
                    </mxGeometry>
                </mxCell>
                <mxCell id="A9kIZFCnwzDyXK5sCehe-59" value="Universe" style="shape=cube;whiteSpace=wrap;html=1;boundedLbl=1;backgroundOutline=1;darkOpacity=0.05;darkOpacity2=0.1;size=17;" parent="1" vertex="1">
                    <mxGeometry x="1023" y="242" width="120" height="70" as="geometry"/>
                </mxCell>
                <mxCell id="A9kIZFCnwzDyXK5sCehe-60" value="World" style="shape=cube;whiteSpace=wrap;html=1;boundedLbl=1;backgroundOutline=1;darkOpacity=0.05;darkOpacity2=0.1;size=17;fillColor=#dae8fc;strokeColor=#6c8ebf;" parent="1" vertex="1">
                    <mxGeometry x="943" y="422" width="120" height="70" as="geometry"/>
                </mxCell>
                <mxCell id="A9kIZFCnwzDyXK5sCehe-61" value="" style="endArrow=classic;html=1;" parent="1" source="A9kIZFCnwzDyXK5sCehe-59" target="A9kIZFCnwzDyXK5sCehe-60" edge="1">
                    <mxGeometry width="50" height="50" relative="1" as="geometry">
                        <mxPoint x="1033" y="327" as="sourcePoint"/>
                        <mxPoint x="1083" y="277" as="targetPoint"/>
                    </mxGeometry>
                </mxCell>
                <mxCell id="A9kIZFCnwzDyXK5sCehe-62" value="World" style="shape=cube;whiteSpace=wrap;html=1;boundedLbl=1;backgroundOutline=1;darkOpacity=0.05;darkOpacity2=0.1;size=17;fillColor=#dae8fc;strokeColor=#6c8ebf;" parent="1" vertex="1">
                    <mxGeometry x="1103" y="422" width="120" height="70" as="geometry"/>
                </mxCell>
                <mxCell id="A9kIZFCnwzDyXK5sCehe-66" value="" style="endArrow=classic;html=1;" parent="1" source="A9kIZFCnwzDyXK5sCehe-59" target="A9kIZFCnwzDyXK5sCehe-62" edge="1">
                    <mxGeometry width="50" height="50" relative="1" as="geometry">
                        <mxPoint x="1160" y="307" as="sourcePoint"/>
                        <mxPoint x="1063" y="342" as="targetPoint"/>
                    </mxGeometry>
                </mxCell>
                <mxCell id="A9kIZFCnwzDyXK5sCehe-68" value="Chunk" style="shape=cube;whiteSpace=wrap;html=1;boundedLbl=1;backgroundOutline=1;darkOpacity=0.05;darkOpacity2=0.1;size=17;fillColor=#e1d5e7;strokeColor=#9673a6;" parent="1" vertex="1">
                    <mxGeometry x="820" y="740" width="120" height="70" as="geometry"/>
                </mxCell>
                <mxCell id="A9kIZFCnwzDyXK5sCehe-69" value="Region" style="shape=cube;whiteSpace=wrap;html=1;boundedLbl=1;backgroundOutline=1;darkOpacity=0.05;darkOpacity2=0.1;size=17;fillColor=#f8cecc;strokeColor=#b85450;" parent="1" vertex="1">
                    <mxGeometry x="890" y="632" width="120" height="70" as="geometry"/>
                </mxCell>
                <mxCell id="A9kIZFCnwzDyXK5sCehe-70" value="Region" style="shape=cube;whiteSpace=wrap;html=1;boundedLbl=1;backgroundOutline=1;darkOpacity=0.05;darkOpacity2=0.1;size=17;fillColor=#f8cecc;strokeColor=#b85450;" parent="1" vertex="1">
                    <mxGeometry x="1050" y="632" width="120" height="70" as="geometry"/>
                </mxCell>
                <mxCell id="A9kIZFCnwzDyXK5sCehe-71" value="Chunk" style="shape=cube;whiteSpace=wrap;html=1;boundedLbl=1;backgroundOutline=1;darkOpacity=0.05;darkOpacity2=0.1;size=17;fillColor=#e1d5e7;strokeColor=#9673a6;" parent="1" vertex="1">
                    <mxGeometry x="970" y="740" width="120" height="70" as="geometry"/>
                </mxCell>
                <mxCell id="A9kIZFCnwzDyXK5sCehe-73" value="" style="endArrow=classic;html=1;" parent="1" source="A9kIZFCnwzDyXK5sCehe-69" target="A9kIZFCnwzDyXK5sCehe-71" edge="1">
                    <mxGeometry width="50" height="50" relative="1" as="geometry">
                        <mxPoint x="1240" y="805" as="sourcePoint"/>
                        <mxPoint x="1290" y="755" as="targetPoint"/>
                    </mxGeometry>
                </mxCell>
                <mxCell id="A9kIZFCnwzDyXK5sCehe-74" value="" style="endArrow=classic;html=1;" parent="1" source="A9kIZFCnwzDyXK5sCehe-69" target="A9kIZFCnwzDyXK5sCehe-68" edge="1">
                    <mxGeometry width="50" height="50" relative="1" as="geometry">
                        <mxPoint x="1200" y="815" as="sourcePoint"/>
                        <mxPoint x="1250" y="764.9999999999999" as="targetPoint"/>
                    </mxGeometry>
                </mxCell>
                <mxCell id="A9kIZFCnwzDyXK5sCehe-75" value="" style="endArrow=classic;html=1;" parent="1" source="A9kIZFCnwzDyXK5sCehe-60" target="A9kIZFCnwzDyXK5sCehe-69" edge="1">
                    <mxGeometry width="50" height="50" relative="1" as="geometry">
                        <mxPoint x="1223" y="597" as="sourcePoint"/>
                        <mxPoint x="1273" y="546.9999999999999" as="targetPoint"/>
                    </mxGeometry>
                </mxCell>
                <mxCell id="A9kIZFCnwzDyXK5sCehe-77" value="" style="endArrow=classic;html=1;" parent="1" source="A9kIZFCnwzDyXK5sCehe-60" target="A9kIZFCnwzDyXK5sCehe-70" edge="1">
                    <mxGeometry width="50" height="50" relative="1" as="geometry">
                        <mxPoint x="1223" y="617" as="sourcePoint"/>
                        <mxPoint x="1273" y="566.9999999999999" as="targetPoint"/>
                    </mxGeometry>
                </mxCell>
                <mxCell id="A9kIZFCnwzDyXK5sCehe-97" value="" style="group" parent="1" vertex="1" connectable="0">
                    <mxGeometry x="1260" y="475" width="189" height="195" as="geometry"/>
                </mxCell>
                <mxCell id="A9kIZFCnwzDyXK5sCehe-89" value="&lt;br&gt;&lt;br&gt;&lt;br&gt;&lt;br&gt;&lt;br&gt;&lt;br&gt;&lt;br&gt;&lt;br&gt;World" style="whiteSpace=wrap;html=1;aspect=fixed;fillColor=#dae8fc;strokeColor=#6c8ebf;" parent="A9kIZFCnwzDyXK5sCehe-97" vertex="1">
                    <mxGeometry width="189" height="189" as="geometry"/>
                </mxCell>
                <mxCell id="A9kIZFCnwzDyXK5sCehe-90" value="&lt;br&gt;Region" style="whiteSpace=wrap;html=1;aspect=fixed;fillColor=#f8cecc;strokeColor=#b85450;" parent="A9kIZFCnwzDyXK5sCehe-97" vertex="1">
                    <mxGeometry x="47.25" y="47.25" width="94.5" height="94.5" as="geometry"/>
                </mxCell>
                <mxCell id="A9kIZFCnwzDyXK5sCehe-94" value="Chunk" style="whiteSpace=wrap;html=1;aspect=fixed;fillColor=#e1d5e7;strokeColor=#9673a6;" parent="A9kIZFCnwzDyXK5sCehe-97" vertex="1">
                    <mxGeometry x="47.25" y="47.25" width="47.25" height="47.25" as="geometry"/>
                </mxCell>
                <mxCell id="A9kIZFCnwzDyXK5sCehe-98" value="&lt;div align=&quot;left&quot;&gt;Region: 2x2 Chunks&lt;/div&gt;&lt;div align=&quot;left&quot;&gt;Chunk: 16 Chunk Sections&lt;/div&gt;&lt;div align=&quot;left&quot;&gt;Chunk Section: 16x16x16 Blocks&lt;br&gt;&lt;/div&gt;" style="shape=note;whiteSpace=wrap;html=1;backgroundOutline=1;darkOpacity=0.05;size=20;align=left;" parent="1" vertex="1">
                    <mxGeometry x="1114" y="742.5" width="196" height="65" as="geometry"/>
                </mxCell>
                <mxCell id="A9kIZFCnwzDyXK5sCehe-99" value="&lt;div align=&quot;left&quot;&gt;Handles changes in the chunks, ticks blocks and handles other events relating to the contained chunks&lt;/div&gt;" style="shape=note;whiteSpace=wrap;html=1;backgroundOutline=1;darkOpacity=0.05;size=16;align=left;" parent="1" vertex="1">
                    <mxGeometry x="550" y="702" width="170" height="90" as="geometry"/>
                </mxCell>
                <mxCell id="A9kIZFCnwzDyXK5sCehe-100" value="Handles global events, like chat messages and scoreboards" style="shape=note;whiteSpace=wrap;html=1;backgroundOutline=1;darkOpacity=0.05;size=16;align=left;" parent="1" vertex="1">
                    <mxGeometry x="510" y="312" width="170" height="90" as="geometry"/>
                </mxCell>
                <mxCell id="A9kIZFCnwzDyXK5sCehe-101" value="Handles world events, like managing regions, world generation and entities" style="shape=note;whiteSpace=wrap;html=1;backgroundOutline=1;darkOpacity=0.05;size=16;align=left;" parent="1" vertex="1">
                    <mxGeometry x="530" y="492" width="150" height="108" as="geometry"/>
                </mxCell>
                <mxCell id="A9kIZFCnwzDyXK5sCehe-102" value="" style="shape=flexArrow;endArrow=block;startArrow=none;html=1;exitX=0.75;exitY=0;exitDx=0;exitDy=0;entryX=0.719;entryY=1;entryDx=0;entryDy=0;entryPerimeter=0;endWidth=17.931034482758623;endSize=2.613793103448276;startWidth=17.931034482758623;startSize=2.613793103448276;fillColor=#ffe6cc;strokeColor=#d79b00;endFill=0;startFill=0;" parent="1" edge="1">
                    <mxGeometry width="50" height="50" relative="1" as="geometry">
                        <mxPoint x="729" y="630" as="sourcePoint"/>
                        <mxPoint x="729.0799999999999" y="480" as="targetPoint"/>
                    </mxGeometry>
                </mxCell>
                <mxCell id="A9kIZFCnwzDyXK5sCehe-105" value="&lt;h1&gt;Legend&lt;/h1&gt;&lt;p&gt;Data channel between threads&lt;/p&gt;&lt;p&gt;Summons Thread (and passes arguments)&lt;br&gt;&lt;/p&gt;&lt;p&gt;Returns (when finished)&lt;/p&gt;&lt;p&gt;Returns (when created)&lt;br&gt;&lt;/p&gt;&lt;p&gt;Structure&lt;br&gt;&lt;/p&gt;&lt;div&gt;Owns&lt;br&gt;&lt;/div&gt;" style="text;html=1;strokeColor=none;fillColor=none;spacing=5;spacingTop=-20;whiteSpace=wrap;overflow=hidden;rounded=0;" parent="1" vertex="1">
                    <mxGeometry x="40" y="490" width="260" height="210" as="geometry"/>
                </mxCell>
                <mxCell id="A9kIZFCnwzDyXK5sCehe-106" value="" style="shape=flexArrow;endArrow=classic;html=1;exitX=1;exitY=0.5;exitDx=0;exitDy=0;endWidth=12.5;endSize=2.5;fillColor=#ffe6cc;strokeColor=#d79b00;" parent="1" edge="1">
                    <mxGeometry width="50" height="50" relative="1" as="geometry">
                        <mxPoint x="20" y="548" as="sourcePoint"/>
                        <mxPoint x="40" y="548" as="targetPoint"/>
                        <Array as="points">
                            <mxPoint x="40" y="548"/>
                        </Array>
                    </mxGeometry>
                </mxCell>
                <mxCell id="A9kIZFCnwzDyXK5sCehe-107" value="" style="endArrow=classic;html=1;entryX=0.25;entryY=0;entryDx=0;entryDy=0;fillColor=#d5e8d4;strokeColor=#82b366;" parent="1" edge="1">
                    <mxGeometry width="50" height="50" relative="1" as="geometry">
                        <mxPoint x="20" y="575" as="sourcePoint"/>
                        <mxPoint x="40" y="575" as="targetPoint"/>
                    </mxGeometry>
                </mxCell>
                <mxCell id="A9kIZFCnwzDyXK5sCehe-109" value="" style="endArrow=classic;html=1;entryX=0.25;entryY=0;entryDx=0;entryDy=0;fillColor=#e1d5e7;strokeColor=#9673a6;" parent="1" edge="1">
                    <mxGeometry width="50" height="50" relative="1" as="geometry">
                        <mxPoint x="20" y="601" as="sourcePoint"/>
                        <mxPoint x="40" y="601" as="targetPoint"/>
                    </mxGeometry>
                </mxCell>
                <mxCell id="A9kIZFCnwzDyXK5sCehe-110" value="" style="shape=cube;whiteSpace=wrap;html=1;boundedLbl=1;backgroundOutline=1;darkOpacity=0.05;darkOpacity2=0.1;size=5;" parent="1" vertex="1">
                    <mxGeometry x="20" y="642" width="20" height="20" as="geometry"/>
                </mxCell>
                <mxCell id="A9kIZFCnwzDyXK5sCehe-111" value="" style="endArrow=classic;html=1;entryX=0.25;entryY=0;entryDx=0;entryDy=0;fillColor=#f8cecc;strokeColor=#b85450;" parent="1" edge="1">
                    <mxGeometry width="50" height="50" relative="1" as="geometry">
                        <mxPoint x="20" y="627" as="sourcePoint"/>
                        <mxPoint x="40" y="627" as="targetPoint"/>
                    </mxGeometry>
                </mxCell>
                <mxCell id="A9kIZFCnwzDyXK5sCehe-118" value="" style="shape=flexArrow;endArrow=classic;html=1;endWidth=12.5;endSize=2.5;fillColor=#ffe6cc;strokeColor=#d79b00;entryX=0.036;entryY=1;entryDx=0;entryDy=0;entryPerimeter=0;" parent="1" target="A9kIZFCnwzDyXK5sCehe-12" edge="1">
                    <mxGeometry width="50" height="50" relative="1" as="geometry">
                        <mxPoint x="78" y="200" as="sourcePoint"/>
                        <mxPoint x="90" y="120" as="targetPoint"/>
                    </mxGeometry>
                </mxCell>
                <mxCell id="A9kIZFCnwzDyXK5sCehe-119" value="Encryption" style="shape=cube;whiteSpace=wrap;html=1;boundedLbl=1;backgroundOutline=1;darkOpacity=0.05;darkOpacity2=0.1;size=4;fillColor=#d5e8d4;strokeColor=#82b366;" parent="1" vertex="1">
                    <mxGeometry x="142.5" y="151" width="75" height="20" as="geometry"/>
                </mxCell>
                <mxCell id="A9kIZFCnwzDyXK5sCehe-120" value="&lt;font style=&quot;font-size: 9px&quot;&gt;Encryption&lt;/font&gt;" style="shape=cube;whiteSpace=wrap;html=1;boundedLbl=1;backgroundOutline=1;darkOpacity=0.05;darkOpacity2=0.1;size=4;fillColor=#d5e8d4;strokeColor=#82b366;" parent="1" vertex="1">
                    <mxGeometry x="24" y="266.5" width="56" height="21" as="geometry"/>
                </mxCell>
                <mxCell id="A9kIZFCnwzDyXK5sCehe-123" value="Top-down view of a world" style="shape=note;whiteSpace=wrap;html=1;backgroundOutline=1;darkOpacity=0.05;size=20;align=left;" parent="1" vertex="1">
                    <mxGeometry x="1460" y="475" width="160" height="40" as="geometry"/>
                </mxCell>
                <mxCell id="A9kIZFCnwzDyXK5sCehe-124" value="Chunk Section" style="shape=cube;whiteSpace=wrap;html=1;boundedLbl=1;backgroundOutline=1;darkOpacity=0.05;darkOpacity2=0.1;size=17;fillColor=#f5f5f5;strokeColor=#666666;fontColor=#333333;" parent="1" vertex="1">
                    <mxGeometry x="740" y="845" width="120" height="70" as="geometry"/>
                </mxCell>
                <mxCell id="A9kIZFCnwzDyXK5sCehe-126" value="" style="endArrow=classic;html=1;" parent="1" source="A9kIZFCnwzDyXK5sCehe-68" target="A9kIZFCnwzDyXK5sCehe-124" edge="1">
                    <mxGeometry width="50" height="50" relative="1" as="geometry">
                        <mxPoint x="924.6248148148152" y="855" as="sourcePoint"/>
                        <mxPoint x="899.9951851851852" y="893" as="targetPoint"/>
                    </mxGeometry>
                </mxCell>
                <mxCell id="A9kIZFCnwzDyXK5sCehe-127" value="Chunk Section" style="shape=cube;whiteSpace=wrap;html=1;boundedLbl=1;backgroundOutline=1;darkOpacity=0.05;darkOpacity2=0.1;size=17;fillColor=#f5f5f5;strokeColor=#666666;fontColor=#333333;" parent="1" vertex="1">
                    <mxGeometry x="890" y="845" width="120" height="70" as="geometry"/>
                </mxCell>
                <mxCell id="A9kIZFCnwzDyXK5sCehe-128" value="" style="endArrow=classic;html=1;" parent="1" source="A9kIZFCnwzDyXK5sCehe-68" target="A9kIZFCnwzDyXK5sCehe-127" edge="1">
                    <mxGeometry width="50" height="50" relative="1" as="geometry">
                        <mxPoint x="1074.6248148148152" y="861" as="sourcePoint"/>
                        <mxPoint x="1049.9951851851852" y="899" as="targetPoint"/>
                    </mxGeometry>
                </mxCell>
                <mxCell id="A9kIZFCnwzDyXK5sCehe-131" value="" style="endArrow=classic;html=1;exitX=0.859;exitY=0.007;exitDx=0;exitDy=0;entryX=0.814;entryY=1;entryDx=0;entryDy=0;fillColor=#f8cecc;strokeColor=#b85450;entryPerimeter=0;exitPerimeter=0;" parent="1" source="A9kIZFCnwzDyXK5sCehe-81" target="A9kIZFCnwzDyXK5sCehe-80" edge="1">
                    <mxGeometry width="50" height="50" relative="1" as="geometry">
                        <mxPoint x="790.76" y="622.5" as="sourcePoint"/>
                        <mxPoint x="790" y="522.5" as="targetPoint"/>
                    </mxGeometry>
                </mxCell>
                <mxCell id="A9kIZFCnwzDyXK5sCehe-132" value="Handle" style="shape=cube;whiteSpace=wrap;html=1;boundedLbl=1;backgroundOutline=1;darkOpacity=0.05;darkOpacity2=0.1;size=7;fillColor=#f8cecc;strokeColor=#b85450;" parent="1" vertex="1">
                    <mxGeometry x="780" y="545" width="60" height="30" as="geometry"/>
                </mxCell>
                <mxCell id="A9kIZFCnwzDyXK5sCehe-134" value="" style="shape=flexArrow;endArrow=none;html=1;endWidth=12.5;endSize=2.5;fillColor=#ffe6cc;strokeColor=#d79b00;entryX=0.929;entryY=0.002;entryDx=0;entryDy=0;entryPerimeter=0;exitX=0.667;exitY=1;exitDx=0;exitDy=0;exitPerimeter=0;endFill=0;" parent="1" edge="1">
                    <mxGeometry width="50" height="50" relative="1" as="geometry">
                        <mxPoint x="300" y="99.88" as="sourcePoint"/>
                        <mxPoint x="300.1" y="135" as="targetPoint"/>
                    </mxGeometry>
                </mxCell>
                <mxCell id="A9kIZFCnwzDyXK5sCehe-136" value="Handle" style="shape=cube;whiteSpace=wrap;html=1;boundedLbl=1;backgroundOutline=1;darkOpacity=0.05;darkOpacity2=0.1;size=7;fillColor=#d5e8d4;strokeColor=#82b366;" parent="1" vertex="1">
                    <mxGeometry x="690" y="545" width="60" height="30" as="geometry"/>
                </mxCell>
                <mxCell id="3" value="" style="shape=flexArrow;endArrow=block;startArrow=none;html=1;exitX=0.653;exitY=0;exitDx=0;exitDy=0;entryX=0.636;entryY=1.013;entryDx=0;entryDy=0;entryPerimeter=0;endWidth=17.931034482758623;endSize=2.613793103448276;startWidth=17.931034482758623;startSize=2.613793103448276;fillColor=#ffe6cc;strokeColor=#d79b00;endFill=0;startFill=0;exitPerimeter=0;" edge="1" parent="1" source="A9kIZFCnwzDyXK5sCehe-80" target="A9kIZFCnwzDyXK5sCehe-79">
                    <mxGeometry width="50" height="50" relative="1" as="geometry">
                        <mxPoint x="740" y="462" as="sourcePoint"/>
                        <mxPoint x="740.0799999999999" y="312" as="targetPoint"/>
                    </mxGeometry>
                </mxCell>
                <mxCell id="4" value="" style="shape=flexArrow;endArrow=none;startArrow=block;html=1;endWidth=17.931034482758623;endSize=2.613793103448276;startWidth=17.931034482758623;startSize=2.613793103448276;fillColor=#ffe6cc;strokeColor=#d79b00;endFill=0;startFill=0;exitX=0.876;exitY=-0.007;exitDx=0;exitDy=0;exitPerimeter=0;" edge="1" parent="1" source="A9kIZFCnwzDyXK5sCehe-80">
                    <mxGeometry width="50" height="50" relative="1" as="geometry">
                        <mxPoint x="811" y="420" as="sourcePoint"/>
                        <mxPoint x="810" y="300" as="targetPoint"/>
                    </mxGeometry>
                </mxCell>
                <mxCell id="6" value="Handle" style="shape=cube;whiteSpace=wrap;html=1;boundedLbl=1;backgroundOutline=1;darkOpacity=0.05;darkOpacity2=0.1;size=7;fillColor=#d5e8d4;strokeColor=#82b366;" vertex="1" parent="1">
                    <mxGeometry x="700" y="345" width="60" height="30" as="geometry"/>
                </mxCell>
                <mxCell id="7" value="" style="endArrow=classic;html=1;exitX=0.826;exitY=0.007;exitDx=0;exitDy=0;fillColor=#f8cecc;strokeColor=#b85450;exitPerimeter=0;entryX=0.791;entryY=0.987;entryDx=0;entryDy=0;entryPerimeter=0;startArrow=none;startFill=0;endFill=1;" edge="1" parent="1" source="A9kIZFCnwzDyXK5sCehe-80" target="A9kIZFCnwzDyXK5sCehe-79">
                    <mxGeometry width="50" height="50" relative="1" as="geometry">
                        <mxPoint x="790.52" y="630.42" as="sourcePoint"/>
                        <mxPoint x="790" y="305" as="targetPoint"/>
                    </mxGeometry>
                </mxCell>
                <mxCell id="2" value="Handle" style="shape=cube;whiteSpace=wrap;html=1;boundedLbl=1;backgroundOutline=1;darkOpacity=0.05;darkOpacity2=0.1;size=7;fillColor=#f8cecc;strokeColor=#b85450;" vertex="1" parent="1">
                    <mxGeometry x="780" y="345" width="60" height="30" as="geometry"/>
                </mxCell>
                <mxCell id="8" value="" style="shape=link;html=1;" edge="1" parent="1">
                    <mxGeometry width="50" height="50" relative="1" as="geometry">
                        <mxPoint x="20" y="675.05" as="sourcePoint"/>
                        <mxPoint x="40" y="674.8" as="targetPoint"/>
                    </mxGeometry>
                </mxCell>
                <mxCell id="9" value="" style="endArrow=classic;html=1;entryX=0.5;entryY=0;entryDx=0;entryDy=0;fillColor=#d5e8d4;strokeColor=#82b366;exitX=0.44;exitY=1;exitDx=0;exitDy=0;exitPerimeter=0;" edge="1" parent="1" source="A9kIZFCnwzDyXK5sCehe-12">
                    <mxGeometry width="50" height="50" relative="1" as="geometry">
                        <mxPoint x="724" y="110" as="sourcePoint"/>
                        <mxPoint x="724" y="239.58" as="targetPoint"/>
                    </mxGeometry>
                </mxCell>
                <mxCell id="10" value="" style="shape=flexArrow;endArrow=block;startArrow=none;html=1;exitX=0.653;exitY=0;exitDx=0;exitDy=0;entryX=0.456;entryY=1;entryDx=0;entryDy=0;entryPerimeter=0;endWidth=17.931034482758623;endSize=2.613793103448276;startWidth=17.931034482758623;startSize=2.613793103448276;fillColor=#ffe6cc;strokeColor=#d79b00;endFill=0;startFill=0;exitPerimeter=0;" edge="1" parent="1" target="A9kIZFCnwzDyXK5sCehe-12">
                    <mxGeometry width="50" height="50" relative="1" as="geometry">
                        <mxPoint x="748.9599999999998" y="239.58" as="sourcePoint"/>
                        <mxPoint x="748.9599999999998" y="120.35999999999999" as="targetPoint"/>
                    </mxGeometry>
                </mxCell>
                <mxCell id="11" value="" style="shape=flexArrow;endArrow=none;startArrow=block;html=1;endWidth=17.931034482758623;endSize=2.613793103448276;startWidth=17.931034482758623;startSize=2.613793103448276;fillColor=#ffe6cc;strokeColor=#d79b00;endFill=0;startFill=0;exitX=0.876;exitY=-0.007;exitDx=0;exitDy=0;exitPerimeter=0;entryX=0.5;entryY=1;entryDx=0;entryDy=0;" edge="1" parent="1" target="A9kIZFCnwzDyXK5sCehe-12">
                    <mxGeometry width="50" height="50" relative="1" as="geometry">
                        <mxPoint x="820.3199999999999" y="239.16000000000005" as="sourcePoint"/>
                        <mxPoint x="820" y="119.58000000000001" as="targetPoint"/>
                    </mxGeometry>
                </mxCell>
                <mxCell id="12" value="Handle" style="shape=cube;whiteSpace=wrap;html=1;boundedLbl=1;backgroundOutline=1;darkOpacity=0.05;darkOpacity2=0.1;size=7;fillColor=#d5e8d4;strokeColor=#82b366;" vertex="1" parent="1">
                    <mxGeometry x="710" y="164.58" width="60" height="30" as="geometry"/>
                </mxCell>
                <mxCell id="13" value="" style="endArrow=classic;html=1;fillColor=#f8cecc;strokeColor=#b85450;entryX=0.489;entryY=1.021;entryDx=0;entryDy=0;entryPerimeter=0;startArrow=none;startFill=0;endFill=1;" edge="1" parent="1" target="A9kIZFCnwzDyXK5sCehe-12">
                    <mxGeometry width="50" height="50" relative="1" as="geometry">
                        <mxPoint x="802" y="240" as="sourcePoint"/>
                        <mxPoint x="804.76" y="118.80000000000004" as="targetPoint"/>
                    </mxGeometry>
                </mxCell>
                <mxCell id="14" value="Handle" style="shape=cube;whiteSpace=wrap;html=1;boundedLbl=1;backgroundOutline=1;darkOpacity=0.05;darkOpacity2=0.1;size=7;fillColor=#f8cecc;strokeColor=#b85450;" vertex="1" parent="1">
                    <mxGeometry x="790" y="164.58" width="60" height="30" as="geometry"/>
                </mxCell>
                <mxCell id="15" value="" style="endArrow=classic;html=1;fillColor=#f8cecc;strokeColor=#b85450;startArrow=none;startFill=0;endFill=1;" edge="1" parent="1">
                    <mxGeometry width="50" height="50" relative="1" as="geometry">
                        <mxPoint x="120.24" y="320" as="sourcePoint"/>
                        <mxPoint x="120" y="261" as="targetPoint"/>
                    </mxGeometry>
                </mxCell>
                <mxCell id="16" value="Handle" style="shape=cube;whiteSpace=wrap;html=1;boundedLbl=1;backgroundOutline=1;darkOpacity=0.05;darkOpacity2=0.1;size=4;fillColor=#f8cecc;strokeColor=#b85450;fontSize=10;" vertex="1" parent="1">
                    <mxGeometry x="86" y="289.29" width="44" height="16.71" as="geometry"/>
                </mxCell>
                <mxCell id="20" value="" style="endArrow=classic;html=1;fillColor=#f8cecc;strokeColor=#b85450;entryX=0.712;entryY=1.021;entryDx=0;entryDy=0;entryPerimeter=0;startArrow=none;startFill=0;endFill=1;exitX=0.328;exitY=0;exitDx=0;exitDy=0;exitPerimeter=0;" edge="1" parent="1" source="A9kIZFCnwzDyXK5sCehe-3" target="A9kIZFCnwzDyXK5sCehe-1">
                    <mxGeometry width="50" height="50" relative="1" as="geometry">
                        <mxPoint x="120.24" y="320" as="sourcePoint"/>
                        <mxPoint x="119.99999999999999" y="278.8" as="targetPoint"/>
                    </mxGeometry>
                </mxCell>
                <mxCell id="18" value="Handle" style="shape=cube;whiteSpace=wrap;html=1;boundedLbl=1;backgroundOutline=1;darkOpacity=0.05;darkOpacity2=0.1;size=4;fillColor=#f8cecc;strokeColor=#b85450;fontSize=10;" vertex="1" parent="1">
                    <mxGeometry x="206" y="272.58000000000004" width="44" height="16.71" as="geometry"/>
                </mxCell>
            </root>
        </mxGraphModel>
    </diagram>
</mxfile>